{
  "asset": {
    "generator": "Khronos glTF Blender I/O v3.3.32",
    "version": "2.0"
  },
  "scene": 0,
  "scenes": [
    {
      "name": "blend_export",
      "nodes": [
        0
      ]
    }
  ],
  "nodes": [
    {
      "mesh": 0,
      "name": "bolt_cutters_01"
    }
  ],
  "materials": [
    {
      "doubleSided": true,
      "name": "bolt_cutters_01",
      "normalTexture": {
        "index": 0
      },
      "pbrMetallicRoughness": {
        "baseColorTexture": {
          "index": 1
        },
        "metallicRoughnessTexture": {
          "index": 2
        }
      }
    }
  ],
  "meshes": [
    {
      "name": "Plane.011",
      "primitives": [
        {
          "attributes": {
            "POSITION": 0,
            "NORMAL": 1,
            "TEXCOORD_0": 2
          },
          "indices": 3,
          "material": 0
        }
      ]
    }
  ],
  "textures": [
    {
      "sampler": 0,
      "source": 0
    },
    {
      "sampler": 0,
      "source": 1
    },
    {
      "sampler": 0,
      "source": 2
    }
  ],
  "images": [
    {
      "mimeType": "image/jpeg",
      "name": "bolt_cutters_01_nor_gl",
      "uri": "textures/bolt_cutters_01_nor_gl_2k.jpg"
    },
    {
      "mimeType": "image/jpeg",
      "name": "bolt_cutters_01_diff",
      "uri": "textures/bolt_cutters_01_diff_2k.jpg"
    },
    {
      "mimeType": "image/jpeg",
      "name": "bolt_cutters_01_metal-bolt_cutters_01_rough",
      "uri": "textures/bolt_cutters_01_arm_2k.jpg"
    }
  ],
  "accessors": [
    {
      "bufferView": 0,
      "componentType": 5126,
      "count": 2320,
      "max": [
        0.0713435560464859,
        0.3157519996166229,
        0.021718742325901985
      ],
      "min": [
        -0.0797022134065628,
        -0.4868289828300476,
        -0.01430872268974781
      ],
      "type": "VEC3"
    },
    {
      "bufferView": 1,
      "componentType": 5126,
      "count": 2320,
      "type": "VEC3"
    },
    {
      "bufferView": 2,
      "componentType": 5126,
      "count": 2320,
      "type": "VEC2"
    },
    {
      "bufferView": 3,
      "componentType": 5123,
      "count": 10230,
      "type": "SCALAR"
    }
  ],
  "bufferViews": [
    {
      "buffer": 0,
      "byteLength": 27840,
      "byteOffset": 0,
      "target": 34962
    },
    {
      "buffer": 0,
      "byteLength": 27840,
      "byteOffset": 27840,
      "target": 34962
    },
    {
      "buffer": 0,
      "byteLength": 18560,
      "byteOffset": 55680,
      "target": 34962
    },
    {
      "buffer": 0,
      "byteLength": 20460,
      "byteOffset": 74240,
      "target": 34963
    }
  ],
  "samplers": [
    {
      "magFilter": 9729,
      "minFilter": 9987
    }
  ],
  "buffers": [
    {
      "byteLength": 94700,
      "uri": "bolt_cutters_01.bin"
    }
  ]
}